<svg xmlns="http://www.w3.org/2000/svg" xmlns:xlink="http://www.w3.org/1999/xlink" width="200" zoomAndPan="magnify" viewBox="0 0 150 149.999998" height="200" preserveAspectRatio="xMidYMid meet" version="1.0"><defs><clipPath id="d91862d753"><path d="M 59.101562 59.585938 L 90.601562 59.585938 L 90.601562 91 L 59.101562 91 Z M 59.101562 59.585938 " clip-rule="nonzero"/></clipPath></defs><g clip-path="url(#d91862d753)"><path fill="#000000" d="M 90.402344 75.238281 C 90.402344 76.265625 90.304688 77.28125 90.101562 78.289062 C 89.902344 79.296875 89.605469 80.277344 89.210938 81.226562 C 88.820312 82.175781 88.335938 83.078125 87.765625 83.929688 C 87.195312 84.785156 86.546875 85.578125 85.820312 86.304688 C 85.09375 87.03125 84.300781 87.679688 83.449219 88.25 C 82.59375 88.820312 81.691406 89.300781 80.742188 89.695312 C 79.792969 90.089844 78.8125 90.386719 77.804688 90.585938 C 76.796875 90.785156 75.78125 90.886719 74.753906 90.886719 C 73.726562 90.886719 72.707031 90.785156 71.699219 90.585938 C 70.691406 90.386719 69.714844 90.089844 68.761719 89.695312 C 67.8125 89.300781 66.914062 88.820312 66.058594 88.25 C 65.203125 87.679688 64.414062 87.03125 63.6875 86.304688 C 62.960938 85.578125 62.3125 84.785156 61.738281 83.929688 C 61.167969 83.078125 60.6875 82.175781 60.292969 81.226562 C 59.902344 80.277344 59.605469 79.296875 59.402344 78.289062 C 59.203125 77.28125 59.101562 76.265625 59.101562 75.238281 C 59.101562 74.210938 59.203125 73.191406 59.402344 72.183594 C 59.605469 71.175781 59.902344 70.195312 60.292969 69.246094 C 60.6875 68.296875 61.167969 67.394531 61.738281 66.542969 C 62.3125 65.6875 62.960938 64.898438 63.6875 64.171875 C 64.414062 63.445312 65.203125 62.792969 66.058594 62.222656 C 66.914062 61.652344 67.8125 61.171875 68.761719 60.777344 C 69.714844 60.382812 70.691406 60.085938 71.699219 59.886719 C 72.707031 59.6875 73.726562 59.585938 74.753906 59.585938 C 75.78125 59.585938 76.796875 59.6875 77.804688 59.886719 C 78.8125 60.085938 79.792969 60.382812 80.742188 60.777344 C 81.691406 61.171875 82.59375 61.652344 83.449219 62.222656 C 84.300781 62.792969 85.09375 63.445312 85.820312 64.171875 C 86.546875 64.898438 87.195312 65.6875 87.765625 66.542969 C 88.335938 67.394531 88.820312 68.296875 89.210938 69.246094 C 89.605469 70.195312 89.902344 71.175781 90.101562 72.183594 C 90.304688 73.191406 90.402344 74.210938 90.402344 75.238281 Z M 90.402344 75.238281 " fill-opacity="1" fill-rule="nonzero"/></g></svg>