<svg xmlns="http://www.w3.org/2000/svg" xmlns:xlink="http://www.w3.org/1999/xlink" width="200" zoomAndPan="magnify" viewBox="0 0 150 149.999998" height="200" preserveAspectRatio="xMidYMid meet" version="1.0"><defs><clipPath id="38bb6b3f78"><path d="M 59.757812 59.757812 L 90.507812 59.757812 L 90.507812 90.507812 L 59.757812 90.507812 Z M 59.757812 59.757812 " clip-rule="nonzero"/></clipPath></defs><g clip-path="url(#38bb6b3f78)"><path fill="#000000" d="M 75.132812 59.757812 C 66.636719 59.757812 59.757812 66.636719 59.757812 75.132812 C 59.757812 83.628906 66.636719 90.507812 75.132812 90.507812 C 83.628906 90.507812 90.507812 83.628906 90.507812 75.132812 C 90.507812 66.636719 83.628906 59.757812 75.132812 59.757812 Z M 75.132812 87.433594 C 68.335938 87.433594 62.832031 81.929688 62.832031 75.132812 C 62.832031 68.335938 68.335938 62.832031 75.132812 62.832031 C 81.929688 62.832031 87.433594 68.335938 87.433594 75.132812 C 87.433594 81.929688 81.929688 87.433594 75.132812 87.433594 Z M 75.132812 87.433594 " fill-opacity="1" fill-rule="nonzero"/></g></svg>