<svg xmlns="http://www.w3.org/2000/svg" xmlns:xlink="http://www.w3.org/1999/xlink" width="200" zoomAndPan="magnify" viewBox="0 0 150 149.999998" height="200" preserveAspectRatio="xMidYMid meet" version="1.0"><defs><clipPath id="fc5fd283b3"><path d="M 57.261719 45 L 92.511719 45 L 92.511719 105 L 57.261719 105 Z M 57.261719 45 " clip-rule="nonzero"/></clipPath><clipPath id="7fc0c1159b"><path d="M 23.710938 23.710938 L 126.460938 23.710938 L 126.460938 126.460938 L 23.710938 126.460938 Z M 23.710938 23.710938 " clip-rule="nonzero"/></clipPath></defs><g clip-path="url(#fc5fd283b3)"><path fill="#040606" d="M 62.636719 105 C 61.324219 105 60.066406 104.476562 59.136719 103.542969 C 58.210938 102.609375 57.6875 101.339844 57.6875 100.019531 C 57.6875 98.699219 58.210938 97.433594 59.136719 96.5 L 80.371094 75.128906 L 59.136719 53.765625 C 57.894531 52.503906 57.402344 50.675781 57.863281 48.957031 C 58.320312 47.242188 59.652344 45.902344 61.355469 45.441406 C 63.0625 44.980469 64.882812 45.46875 66.136719 46.722656 L 90.863281 71.613281 C 91.792969 72.546875 92.3125 73.816406 92.3125 75.128906 C 92.3125 76.449219 91.792969 77.71875 90.863281 78.652344 L 66.136719 103.542969 C 65.207031 104.476562 63.949219 105 62.636719 105 " fill-opacity="1" fill-rule="nonzero"/></g><g clip-path="url(#7fc0c1159b)"><path fill="#000000" d="M 75.085938 126.460938 C 46.703125 126.460938 23.710938 103.308594 23.710938 75.085938 C 23.710938 46.859375 46.703125 23.710938 75.085938 23.710938 C 103.46875 23.710938 126.460938 46.703125 126.460938 75.085938 C 126.460938 103.46875 103.308594 126.460938 75.085938 126.460938 Z M 75.085938 26.882812 C 48.445312 26.882812 26.882812 48.445312 26.882812 75.085938 C 26.882812 101.722656 48.445312 123.289062 75.085938 123.289062 C 101.722656 123.289062 123.289062 101.722656 123.289062 75.085938 C 123.289062 48.445312 101.566406 26.882812 75.085938 26.882812 Z M 75.085938 26.882812 " fill-opacity="1" fill-rule="nonzero"/></g></svg>